# xmcd
#
# Track frame offsets:
#	150
#	13548
#	25242
#	39246
#	50766
#	63279
#	74429
#	86488
#	99543
#	111544
#	122705
#	135268
#	146753
#	158780
#	171251
#	183325
#	196079
#	208331
#	220801
#	231828
#	243823
#	254388
#	266435
#	275410
#	285668
#
# Disc length: 3941 seconds
#
# Revision: 1
# Processed by: cddbd v1.5.1PL0 Copyright (c) Steve Scherf et al.
# Submitted via: audiograbber 1.83.01
#
DISCID=6e0f6319
DTITLE=Various Artist - Risque Blues Volume Two
DYEAR=1900
DGENRE=
TTITLE0=Dorothy Ellis - Drill Daddy Drill
TTITLE1=The Swallows - Bicycle Tillie
TTITLE2=Wynonie Harris - I Want My Fanny Brown
TTITLE3=Billy Ward and The Dominoes - Billy Ward and The Dominoes
TTITLE4=Bull Moose Jackson - I Want A Bowlegged Woman
TTITLE5=Roy Brown - Butcher Pete Pt 1
TTITLE6=Hank Ballard and The Midnighters - Annie Had A Baby
TTITLE7=Little Esther - Ring-a-Ding Doo
TTITLE8=Todd Rhodes - Your Daddy's Doggin' Around
TTITLE9=Wynonie Harris - Wasn't That Good
TTITLE10=Fluffy Hunter - My Natch'l Man
TTITLE11=Little Willie John - Leave My Kitten Alone
TTITLE12=The Four Jacks - The Last Of The Good Rocking Men
TTITLE13=Wynonie Harris - Triflin' Woman
TTITLE14=Lonnie Johnson - Jelly Roll Baker
TTITLE15=The Swallows - Roll, Roll, Pretty Baby
TTITLE16=Roy Brown - Rockin' At Midnight
TTITLE17=The Sharps And Flats - I Knew He Would
TTITLE18=Wynonie Harris - Lovin' Machine
TTITLE19=Hank Ballard - The Coffee Grind
TTITLE20=Little Esther and Willie Littlefield - Turn The Lamps Down Low
TTITLE21=Eddie Davis - Mountain Oysters
TTITLE22=Billy Ward and The Dominoes - You Can't Keep A Good Man Down
TTITLE23=Wynonie Harris - Shake That Thing
TTITLE24=The Five Royales - You Didn't Learn It At Home
EXTD=
EXTT0=
EXTT1=
EXTT2=
EXTT3=
EXTT4=
EXTT5=
EXTT6=
EXTT7=
EXTT8=
EXTT9=
EXTT10=
EXTT11=
EXTT12=
EXTT13=
EXTT14=
EXTT15=
EXTT16=
EXTT17=
EXTT18=
EXTT19=
EXTT20=
EXTT21=
EXTT22=
EXTT23=
EXTT24=
PLAYORDER=
